<svg xmlns="http://www.w3.org/2000/svg" xmlns:xlink="http://www.w3.org/1999/xlink" xmlns:inkscape="http://www.inkscape.org/namespaces/inkscape" version="1.1" width="198.333" height="198.055" viewBox="0 0 198.333 198.055">
<defs>
<clipPath id="clip_1">
<path transform="matrix(1,0,0,-1,0,198.055)" d="M0 198.055H198.333V0H0Z"/>
</clipPath>
</defs>
<g inkscape:groupmode="layer" inkscape:label="grid">
<g inkscape:groupmode="layer" inkscape:label="art">
<g clip-path="url(#clip_1)">
<path transform="matrix(1,0,0,-1,99.1665,87.57959)" d="M0 0 5.278-38.287 22.624-9.302 15.264-41.184 33.964-23.293 24.226-46.912 39.785-35.301C32.543-55.01 26.232-66.059 0-75.041-26.231-66.059-32.543-55.01-39.785-35.301L-24.226-46.912-33.964-23.293-15.264-41.184-22.624-9.302-5.277-38.287 0 0Z" fill="#00063e"/>
<path transform="matrix(1,0,0,-1,71.6871,74.75129)" d="M0 0C-7.948 0-12.695 4.253-12.695 11.4V28.508H-6.105V11.669C-6.105 7.517-3.922 5.234 .051 5.234 4.125 5.234 6.285 7.421 6.285 11.551V28.508H12.918V11.513C12.918 4.41 7.969 0 0 0" fill="#00063e"/>
<path transform="matrix(1,0,0,-1,99.4136,74.277599)" d="M0 0H-9.202V28.034H.137C6.964 28.034 10.726 25.383 10.726 20.589 10.726 18.065 9.41 16.123 6.898 14.934 10.266 13.745 11.977 11.52 11.977 8.305 11.977 2.946 7.726 0 0 0M-2.836 4.682H0C2.563 4.682 5.609 5.336 5.609 8.461 5.609 11.682 2.512 12.367-.094 12.367H-2.836ZM-2.836 16.772H-.441C2.765 16.772 4.539 17.975 4.539 20.156 4.539 22.301 2.993 23.347-.18 23.347H-2.836Z" fill="#00063e"/>
<path transform="matrix(1,0,0,-1,129.847,74.75129)" d="M0 0C-9.074 0-14.933 5.666-14.933 14.453-14.933 23.137-8.86 28.976 .179 28.976 3.531 28.976 6.351 28.316 8.801 26.956L9.015 26.837 8.031 21.129 7.597 21.418C5.191 23.033 2.902 23.778 .402 23.778-4.989 23.778-8.211 20.304-8.211 14.488-8.211 8.778-4.879 5.234 .491 5.234 3.035 5.234 5.538 5.998 8.144 7.566L8.574 7.824 9.503 2.499 9.296 2.379C6.621 .847 3.32 0 0 0" fill="#00063e"/>
<path transform="matrix(1,0,0,-1,99.1667,168.5586)" d="M0 0C-30.969 8.773-45.75 29.219-45.75 58.367V127.363H45.75V58.367C45.75 29.219 30.968 8.773 0 0M-49.5 131.113V57.898C-49.5 27.128-32.758 4.85 0-3.887 32.757 4.85 49.5 27.128 49.5 57.898V131.113Z" fill="#00063e"/>
<path transform="matrix(1,0,0,-1,99.1683,84.20709)" d="M0 0C6.902 0 7.835-2.8 13.395-2.766 18.934-2.8 19.882 0 26.785 0 33.687 0 34.636-2.8 40.18-2.766V3.662C34.636 3.625 33.687 6.391 26.785 6.391 19.882 6.391 18.934 3.625 13.395 3.662 7.835 3.625 6.902 6.391 0 6.391-6.903 6.391-7.836 3.625-13.395 3.662-18.934 3.625-19.883 6.391-26.785 6.391-33.688 6.391-34.641 3.625-40.18 3.662V-2.766C-34.641-2.8-33.688 0-26.785 0-19.883 0-18.934-2.8-13.395-2.766-7.836-2.8-6.903 0 0 0" fill="#00063e"/>
<path transform="matrix(1,0,0,-1,103.5415,95.82279)" d="M0 0C3.33-.797 4.914-2.318 9.021-2.292 14.56-2.327 15.509 .474 22.411 .474 29.313 .474 30.263-2.327 35.807-2.292V4.136C30.263 4.099 29.313 6.864 22.411 6.864 15.509 6.864 14.56 4.099 9.021 4.136 4.559 4.106 3.074 5.881-.907 6.583Z" fill="#00063e"/>
<path transform="matrix(1,0,0,-1,85.7737,98.11489)" d="M0 0C4.106-.026 5.69 1.495 9.018 2.291L9.925 8.875C5.946 8.173 4.461 6.398 0 6.428-5.539 6.391-6.489 9.156-13.391 9.156-20.293 9.156-21.246 6.391-26.785 6.428V0C-21.246-.035-20.293 2.766-13.391 2.766-6.489 2.766-5.539-.035 0 0" fill="#00063e"/>
<path transform="matrix(1,0,0,-1,105.142,107.433498)" d="M0 0C1.883-.647 3.33-1.438 5.566-1.718L9.425 4.728C8.822 4.646 8.163 4.6 7.421 4.605 3.602 4.579 1.966 5.876-.922 6.691Z" fill="#00063e"/>
<path transform="matrix(1,0,0,-1,122.8118,106.72139)" d="M0 0C.902 .142 1.928 .23 3.141 .23 10.043 .23 10.993-2.57 16.536-2.536V3.892C10.993 3.855 10.043 6.621 3.141 6.621 2.558 6.621 2.02 6.599 1.515 6.563Z" fill="#00063e"/>
<path transform="matrix(1,0,0,-1,75.5215,106.72099)" d="M0 0-1.515 6.563C-2.019 6.599-2.556 6.62-3.138 6.62-10.041 6.62-10.994 3.855-16.533 3.892V-2.536C-10.994-2.571-10.041 .23-3.138 .23-1.927 .23-.902 .142 0 0" fill="#00063e"/>
<path transform="matrix(1,0,0,-1,87.6251,109.15219)" d="M0 0C2.237 .28 3.684 1.07 5.566 1.718L6.488 8.409C3.602 7.594 1.966 6.298-1.851 6.323-2.595 6.318-3.255 6.365-3.859 6.448Z" fill="#00063e"/>
</g>
</g>
</g>
</svg>
